<?xml version="1.0" encoding="utf-8"?>
<!-- Generator: Adobe Illustrator 16.0.0, SVG Export Plug-In . SVG Version: 6.00 Build 0)  -->
<!DOCTYPE svg PUBLIC "-//W3C//DTD SVG 1.1//EN" "http://www.w3.org/Graphics/SVG/1.1/DTD/svg11.dtd">
<svg version="1.1" xmlns="http://www.w3.org/2000/svg" xmlns:xlink="http://www.w3.org/1999/xlink" x="0px" y="0px"
	 width="1700.79004px" height="1700.79004px" viewBox="0 0 1700.79004 1700.79004"
	 enable-background="new 0 0 1700.79004 1700.79004" xml:space="preserve">
<g id="bg">
	<rect x="0.00098" y="0.00098" fill-rule="evenodd" clip-rule="evenodd" fill="#FFFFFF" width="1700.78809" height="1700.78809"/>
	<g>
		<path fill-rule="evenodd" clip-rule="evenodd" fill="#5A5F64" d="M415.41309,1198.70117
			c11.38477,0,22.01172,3.23828,31.01758,8.83789c1.94629,1.21094,2.58398,3.75,1.4375,5.73438l-4.93164,8.54297
			c-3.2793,5.67969-10.0332,8.37695-16.31738,6.5c-2.76465-0.82422-5.69336-1.26758-8.72656-1.26758
			c-16.8291,0-30.47266,13.64258-30.47266,30.47266c0,16.82813,13.64355,30.47266,30.47266,30.47266
			c3.0332,0,5.96191-0.44336,8.72559-1.26953c6.2959-1.87891,13.0332,0.8125,16.31836,6.50195l4.93164,8.54102
			c1.14648,1.98828,0.50977,4.52344-1.43848,5.73438c-9.00488,5.60156-19.63184,8.83789-31.0166,8.83789
			c-32.48633,0-58.81934-26.33398-58.81934-58.81836C356.59375,1225.03516,382.92676,1198.70117,415.41309,1198.70117
			L415.41309,1198.70117z M763.64941,1262.25391c-14.55859-9.81641-20.20313-20.03125-20.20313-33.08008
			c0-18.48828,15.71582-29.76367,38.26758-29.76367c9.65723,0,18.7207,2.54297,26.55957,6.99414
			c2.0498,1.16406,2.76074,3.7832,1.58301,5.82422l-3.41797,5.91992c-3.24707,5.625-9.9082,8.33203-16.1543,6.54883
			c-2.72266-0.77539-5.59766-1.19141-8.57031-1.19141c-10.49023,0-11.59961,9.57617-4.85742,14.12305l23.68652,15.97656
			c9.99023,6.73828,15.89551,17.06641,15.89551,28.71875c0,18.78516-15.00781,33.30664-38.26758,33.30664
			c-9.52246,0-18.58789-1.95703-26.81543-5.49023c-7.78125-3.33984-10.93359-12.78125-6.69824-20.11719l3.48828-6.04297
			c1.21289-2.09961,3.93164-2.75977,5.97461-1.45508c6.85938,4.38281,16.49023,7.59375,24.75879,7.59375
			c10.5459,0,11.32813-9.95898,3.7666-15.05664L763.64941,1262.25391L763.64941,1262.25391z M1045.06543,1205.08008
			c0-2.34766,1.9043-4.25195,4.25195-4.25195h9.92285c7.82715,0,14.17285,6.3457,14.17285,14.17383v57.40039
			c0,8.61133,6.98047,15.5918,15.59082,15.5918s15.59082-6.98047,15.59082-15.5918v-57.40039
			c0-7.82813,6.3457-14.17383,14.17188-14.17383h9.92188c2.34863,0,4.25195,1.9043,4.25195,4.25195v67.32227
			c0,24.26563-19.67188,43.9375-43.93652,43.9375c-24.26563,0-43.93848-19.67188-43.93848-43.9375V1205.08008L1045.06543,1205.08008
			z M527.30371,1198.70117c32.48535,0,58.81934,26.33398,58.81934,58.82031c0,32.48438-26.33398,58.81836-58.81934,58.81836
			s-58.81836-26.33398-58.81836-58.81836C468.48535,1225.03516,494.81836,1198.70117,527.30371,1198.70117L527.30371,1198.70117z
			 M527.30371,1228.11133c-16.24219,0-29.41016,13.16797-29.41016,29.41016s13.16797,29.4082,29.41016,29.4082
			s29.40918-13.16602,29.40918-29.4082S543.5459,1228.11133,527.30371,1228.11133L527.30371,1228.11133z M617.16797,1314.21289
			c-2.34863,0-4.25195-1.90234-4.25195-4.25v-94.96094c0-7.82813,6.3457-14.17383,14.17285-14.17383h3.95898
			c4.625,0,8.95898,2.25586,11.61133,6.04492l41.12305,58.74805v-50.61914c0-7.82813,6.3457-14.17383,14.17285-14.17383h9.92188
			c2.34766,0,4.25098,1.9043,4.25098,4.25195v94.96094c0,7.82813-6.3457,14.17188-14.17285,14.17188h-3.95898
			c-4.625,0-8.95898-2.25586-11.61035-6.04492l-41.12402-58.74609v50.61914c0,7.82813-6.3457,14.17188-14.17285,14.17188H617.16797
			L617.16797,1314.21289z M1275.45605,1215.00195c0-7.82813,6.3457-14.17383,14.17285-14.17383h50.31543
			c2.34863,0,4.25195,1.9043,4.25195,4.25195v5.66992c0,7.82617-6.3457,14.17188-14.17383,14.17188h-6.02344v75.11914
			c0,7.82813-6.3457,14.17188-14.17285,14.17188h-9.92285c-2.34766,0-4.25098-1.90234-4.25098-4.25v-85.04102h-15.94434
			c-2.34863,0-4.25195-1.90234-4.25195-4.25195V1215.00195L1275.45605,1215.00195z M836.88477,1215.00195
			c0-7.82813,6.3457-14.17383,14.17285-14.17383h50.31543c2.34863,0,4.25195,1.9043,4.25195,4.25195v5.66992
			c0,7.82617-6.3457,14.17188-14.17285,14.17188h-6.02441v75.11914c0,7.82813-6.3457,14.17188-14.17285,14.17188h-9.92188
			c-2.34863,0-4.25195-1.90234-4.25195-4.25v-85.04102h-15.94434c-2.34863,0-4.25195-1.90234-4.25195-4.25195V1215.00195
			L836.88477,1215.00195z M990.04004,1275.10156l26.95801,32.12695c2.31348,2.75781,0.34375,6.98438-3.25684,6.98438h-19.70508
			c-4.18945,0-8.16504-1.85156-10.85742-5.06055l-22.68164-27.03125v27.8418c0,2.34766-1.90332,4.25-4.25195,4.25h-9.9209
			c-7.82715,0-14.17285-6.34375-14.17285-14.17188v-85.03906c0-7.82813,6.3457-14.17383,14.17285-14.17383h29.76367
			c22.7002,0,41.10254,17.13281,41.10254,38.26758C1017.19043,1255.66992,1005.87207,1269.78125,990.04004,1275.10156
			L990.04004,1275.10156z M960.49707,1224.92188v32.59961h8.50391c10.95898,0,19.84277-7.29883,19.84277-16.29883
			c0-9.00195-8.88379-16.30078-19.84277-16.30078H960.49707L960.49707,1224.92188z M1218.79492,1198.70117
			c11.38477,0,22.0127,3.23828,31.01758,8.83789c1.94629,1.21094,2.58496,3.75,1.4375,5.73438l-4.93164,8.54297
			c-3.27832,5.67969-10.0332,8.37695-16.31738,6.5c-2.76465-0.82422-5.69336-1.26758-8.72656-1.26758
			c-16.8291,0-30.47266,13.64258-30.47266,30.47266c0,16.82813,13.64355,30.47266,30.47266,30.47266
			c3.0332,0,5.96191-0.44336,8.72559-1.26953c6.2959-1.87891,13.0332,0.8125,16.31934,6.50195l4.93066,8.54102
			c1.14746,1.98828,0.51074,4.52344-1.43848,5.73438c-9.00391,5.60156-19.63184,8.83789-31.0166,8.83789
			c-32.48535,0-58.81934-26.33398-58.81934-58.81836C1159.97559,1225.03516,1186.30957,1198.70117,1218.79492,1198.70117z"/>
		<g>
			<g>
				<path fill-rule="evenodd" clip-rule="evenodd" fill="#D2E1F0" d="M850.39453,860.66992
					c-50.35645,0-94.3252-27.35645-117.85254-68.02051l-80.03027,46.2041c-4.6543,2.68945-6.13086,8.71875-3.24805,13.25586
					C691.50098,918.5957,765.7959,962.7168,850.39453,962.7168c88.12598,0,165.07129-47.875,206.24316-119.03613l-80.48633-46.46973
					c-4.31445-2.49023-9.80273-1.20508-12.57129,2.93555C939.1748,836.64063,897.59082,860.66992,850.39453,860.66992
					L850.39453,860.66992z M1136.7207,559.2959c4.61426-2.66309,6.11035-8.61914,3.3125-13.15137
					c-59.91504-97.03027-167.22461-161.69434-289.63867-161.69434c-125.89355,0-235.81348,68.39258-294.63379,170.0498
					l80.37695,46.40625c4.39844,2.53906,10.00195,1.14941,12.71094-3.14551
					c42.16406-66.85156,116.66992-111.26367,201.5459-111.26367c88.12598,0,165.07129,47.87598,206.24316,119.03613
					L1136.7207,559.2959z"/>
				<path fill-rule="evenodd" clip-rule="evenodd" fill="#96AAB9" d="M850.39453,962.7168
					c-84.59863,0-158.89355-44.12109-201.13086-110.60742c-2.87695-4.53027-1.40039-10.57031,3.24805-13.25586l80.03027-46.2041
					c-11.58105-20.0166-18.20996-43.25488-18.20996-68.04199c0-74.78516,60.55762-136.0625,136.0625-136.0625
					c47.19629,0,88.78027,24.0293,113.18555,60.52246c2.76465,4.13379,8.26367,5.42188,12.57129,2.93555l80.48633-46.46973
					c-41.17188-71.16016-118.11719-119.03613-206.24316-119.03613c-84.87598,0-159.38184,44.41211-201.5459,111.26367
					c-2.70605,4.29102-8.31836,5.68164-12.71094,3.14551L555.76074,554.5c-28.95215,50.04004-45.52344,108.13965-45.52344,170.10742
					c0,186.96484,151.39453,340.1582,340.15723,340.1582c122.41406,0,229.72363-64.66406,289.63867-161.69531
					c2.7959-4.52734,1.29492-10.49023-3.3125-13.15234l-80.08301-46.2373
					C1015.46582,914.8418,938.52051,962.7168,850.39453,962.7168z"/>
			</g>
			<path fill-rule="evenodd" clip-rule="evenodd" fill="#00E1C8" d="M1137.18457,761.19141v-73.16797l-63.36523,36.58398
				L1137.18457,761.19141L1137.18457,761.19141z M1026.5752,708.24219l120.05859-69.31641
				c12.56836-7.25586,28.3457,1.85254,28.3457,16.36621v138.63086c0,14.5127-15.77734,23.62207-28.3457,16.36621
				l-120.05859-69.31641C1014.02734,733.72754,1014.02734,715.4873,1026.5752,708.24219z"/>
		</g>
	</g>
</g>
<g id="logo">
</g>
</svg>
