<svg width="1328" height="520" viewBox="0 0 1328 520" fill="none" xmlns="http://www.w3.org/2000/svg">
<path d="M639 133.159H709.773V114.903H661.142V89.8977H705.938V71.642H661.142V46.6875H709.568V28.4318H639V133.159Z" fill="#266DD3"/>
<path d="M747.933 28.4318H722.825L754.99 80.7955L722.212 133.159H747.575L769.053 97.4148H769.871L791.348 133.159H816.814L784.138 80.7955L816.098 28.4318H791.092L769.871 64.125H769.053L747.933 28.4318Z" fill="#266DD3"/>
<path d="M830.109 133.159H900.882V114.903H852.251V89.8977H897.047V71.642H852.251V46.6875H900.678V28.4318H830.109V133.159Z" fill="#266DD3"/>
<path d="M1010.68 65.0966C1007.77 40.9091 989.463 27 965.224 27C937.56 27 916.44 46.5341 916.44 80.7955C916.44 114.955 937.202 134.591 965.224 134.591C992.071 134.591 1008.28 116.744 1010.68 97.4659L988.287 97.3636C986.19 108.562 977.395 115.006 965.582 115.006C949.679 115.006 938.889 103.193 938.889 80.7955C938.889 59.0114 949.526 46.5852 965.736 46.5852C977.855 46.5852 986.599 53.5909 988.287 65.0966H1010.68Z" fill="#266DD3"/>
<path d="M1091.4 28.4318V96.9034C1091.4 108.102 1082.35 114.903 1069.98 114.903C1057.76 114.903 1048.7 108.102 1048.7 96.9034V28.4318H1026.56V97.6705C1026.56 121.398 1044.56 134.642 1069.98 134.642C1095.29 134.642 1113.39 121.398 1113.39 97.6705V28.4318H1091.4Z" fill="#266DD3"/>
<path d="M1127.62 46.6875H1159.68V133.159H1181.57V46.6875H1213.63V28.4318H1127.62V46.6875Z" fill="#266DD3"/>
<path d="M1227.8 133.159H1298.57V114.903H1249.94V89.8977H1294.73V71.642H1249.94V46.6875H1298.37V28.4318H1227.8V133.159Z" fill="#266DD3"/>
<path d="M642.446 488.159H772.95C841.558 488.159 878.099 452.364 878.099 403.741C878.099 358.55 845.734 331.256 810.983 329.615V326.632C842.751 319.473 866.168 296.952 866.168 261.007C866.168 215.219 832.162 182.705 764.747 182.705H642.446V488.159ZM707.027 435.361V354.224H761.168C792.19 354.224 811.43 372.122 811.43 397.328C811.43 420.297 795.77 435.361 759.676 435.361H707.027ZM707.027 310.524V234.906H756.097C784.733 234.906 800.99 249.672 800.99 271.746C800.99 295.908 781.303 310.524 754.903 310.524H707.027Z" fill="#266DD3"/>
<path d="M984.703 182.705H920.122V488.159H984.703V182.705Z" fill="#266DD3"/>
<path d="M1240.38 281.44H1306C1297.65 221.035 1244.41 178.528 1175.35 178.528C1094.66 178.528 1032.47 236.696 1032.47 335.73C1032.47 432.378 1090.63 492.335 1176.69 492.335C1253.8 492.335 1308.84 443.564 1308.84 363.173V324.693H1181.02V373.315H1246.64C1245.75 411.199 1219.95 435.212 1176.99 435.212C1128.52 435.212 1097.94 398.969 1097.94 335.134C1097.94 271.597 1129.71 235.652 1176.39 235.652C1209.65 235.652 1232.18 252.804 1240.38 281.44Z" fill="#266DD3"/>
<path d="M493.492 265.644C493.362 294.384 480.227 328.832 443.044 368.639" stroke="#266DD3" stroke-width="14" stroke-miterlimit="10" stroke-linecap="round"/>
<path d="M493.259 271.733C493.718 260.496 536.163 260.733 525.233 295.342C515.782 325.265 491.341 324.575 482.339 314.692" stroke="#266DD3" stroke-width="14" stroke-miterlimit="10" stroke-linecap="round"/>
<path d="M192.233 327.698C145.296 333.936 118.534 366.047 113.946 390.743C113.421 393.568 114.383 396.444 116.434 398.456C124.165 406.039 145.468 422.554 168.975 402.775C179.41 398.506 214.033 386.124 236.492 381.748C240.623 380.943 244.91 381.84 248.394 384.2C286.872 410.278 314.396 412.961 349.42 415.226C354.394 415.548 359.095 417.599 362.703 421.039C378.308 435.92 425.88 476.298 472.726 465.507C474.638 465.066 476.193 463.663 476.934 461.846L490.457 428.714C490.457 428.714 435.322 380.262 428.704 337.957" stroke="#266DD3" stroke-width="14" stroke-miterlimit="10" stroke-linecap="round"/>
<path d="M114.743 320.657C114.743 320.657 109.496 323.424 103.856 327.698C97.3543 332.623 90.3289 339.547 90.2003 346.544C89.9577 359.614 113.145 375.969 117.526 377.472" stroke="#266DD3" stroke-width="14" stroke-miterlimit="10" stroke-linecap="round"/>
<path d="M103.855 327.698C103.855 327.698 132.362 350.968 131.329 357.122C131.329 357.122 169.837 394.771 168.975 402.775" stroke="#266DD3" stroke-width="14" stroke-miterlimit="10" stroke-linecap="round"/>
<path d="M447.818 465.818C447.818 465.818 461.583 410.691 473.448 411.983C473.448 411.983 491.711 379.134 499.798 379.134" stroke="#266DD3" stroke-width="14" stroke-miterlimit="10" stroke-linecap="round"/>
<path d="M468.268 341.095C468.268 341.095 506.391 383.273 506.63 391.221C506.739 394.829 502.219 425.038 490.457 428.713" stroke="#266DD3" stroke-width="14" stroke-miterlimit="10" stroke-linecap="round"/>
<path d="M195.645 100.636C182.926 104.218 173.525 105.953 166.105 106.618C155.994 107.525 149.561 106.449 143.421 105.361C140.213 104.793 138.743 101.005 140.72 98.4161C195.202 27.0342 216.383 90.9141 216.383 90.9141L218.202 97.099" stroke="#266DD3" stroke-width="14" stroke-miterlimit="10" stroke-linecap="round"/>
<path d="M167.397 139.335C167.397 139.335 170.751 106.285 164.224 106.619" stroke="#266DD3" stroke-width="14" stroke-miterlimit="10" stroke-linecap="round"/>
<path d="M80.5668 183.842C80.5668 183.842 104.268 195.002 104.268 234.378" stroke="#266DD3" stroke-width="14" stroke-miterlimit="10" stroke-linecap="round" stroke-linejoin="round"/>
<path d="M71.3278 223.943C71.616 223.943 71.9582 223.799 72.3397 223.396C72.7225 222.991 73.0979 222.369 73.4273 221.546C74.0845 219.902 74.506 217.586 74.506 214.994C74.506 212.402 74.0845 210.086 73.4273 208.442C73.0979 207.619 72.7225 206.997 72.3397 206.592C71.9582 206.189 71.616 206.045 71.3278 206.045C71.0389 206.045 70.6963 206.189 70.3146 206.592C69.9315 206.997 69.5559 207.619 69.2264 208.442C68.569 210.086 68.1475 212.402 68.1475 214.994C68.1475 217.586 68.569 219.902 69.2264 221.545C69.5559 222.369 69.9315 222.991 70.3146 223.396C70.6963 223.799 71.0389 223.943 71.3278 223.943Z" fill="#266DD3" stroke="#266DD3"/>
<path d="M83.5354 231.586C84.0356 231.586 84.5793 231.335 85.1438 230.739C85.7096 230.14 86.2499 229.239 86.7175 228.07C87.6514 225.735 88.2438 222.464 88.2438 218.816C88.2438 215.168 87.6514 211.897 86.7175 209.562C86.2499 208.393 85.7096 207.491 85.1437 206.893C84.5792 206.296 84.0355 206.045 83.5354 206.045C83.036 206.045 82.4927 206.296 81.9283 206.893C81.3626 207.491 80.8223 208.393 80.3547 209.562C79.4208 211.897 78.8282 215.168 78.8282 218.816C78.8282 222.463 79.4208 225.735 80.3547 228.07C80.8223 229.239 81.3625 230.141 81.9283 230.739C82.4926 231.336 83.036 231.586 83.5354 231.586Z" fill="#266DD3" stroke="#266DD3"/>
<path d="M87.1453 290.337C87.1453 290.337 133.04 308.329 156.711 275.865" stroke="#266DD3" stroke-width="14" stroke-miterlimit="10" stroke-linecap="round"/>
<path d="M212.76 115.371C212.76 115.371 154.11 132.586 151.738 164.955C150.024 188.366 118.32 206.021 85.7693 184.64C65.192 171.124 20.6461 263.535 87.1455 290.337C88.5923 290.92 89.244 292.583 88.5069 293.957C88.5069 293.957 87.7655 302.127 106.138 314.855C106.138 314.855 121.254 326.471 148.637 342.705" stroke="#266DD3" stroke-width="14" stroke-miterlimit="10" stroke-linecap="round"/>
<path d="M343.606 150.298C337.416 144.67 334.014 141.043 334.014 141.043C327.852 135.281 324.075 131.027 320.511 123.85C303.727 90.0549 281.222 25.789 219.717 95.2559C216.602 98.7728 214.204 102.959 213.235 107.556C205.834 142.672 287.418 111.21 287.418 111.21" stroke="#266DD3" stroke-width="14" stroke-miterlimit="10" stroke-linecap="round"/>
<path d="M493.492 265.644C493.453 261.457 492.913 256.953 492.06 252.395" stroke="#266DD3" stroke-width="14" stroke-miterlimit="10" stroke-linecap="round"/>
<path d="M276.479 247.282C276.479 247.282 389.604 49.9762 502.062 52.0157C514.531 52.2414 522.32 65.6742 516.316 76.6034C497.921 110.091 459.957 161.67 428.103 164.796" stroke="#266DD3" stroke-width="14" stroke-miterlimit="10" stroke-linecap="round"/>
<path d="M500.704 103.086C510.919 102.288 519.371 102.711 525.818 103.499C535.842 104.724 543.612 113.297 543.473 123.395C543.243 140.048 533.543 155.151 520.253 168.069C490.589 196.905 443.044 214.854 443.044 214.854" stroke="#266DD3" stroke-width="14" stroke-miterlimit="10" stroke-linecap="round"/>
<path d="M514.369 173.456C534.023 165.464 548.18 163.873 557.423 164.28C565.55 164.638 571.679 171.941 570.876 180.037C562.189 267.759 391.677 265.231 391.677 265.231" stroke="#266DD3" stroke-width="14" stroke-miterlimit="10" stroke-linecap="round"/>
<path d="M168.989 191.526C168.989 191.526 198.391 151.557 192.689 203.963" stroke="#266DD3" stroke-width="14" stroke-miterlimit="10" stroke-linecap="round"/>
</svg>
