<svg width="1206" height="520" viewBox="0 0 1206 520" fill="none" xmlns="http://www.w3.org/2000/svg">
<path d="M374.308 29.4197C383.369 14.2013 392.429 20.4466 401.993 28.1276C413.051 36.5228 421.149 48.2101 425.118 61.501C429.086 74.791 428.719 88.997 424.07 102.066C422.987 104.826 422.559 107.798 422.821 110.75C423.083 113.702 424.028 116.553 425.58 119.079C431.934 130.687 434.017 144.149 431.469 157.13C428.921 170.11 421.902 181.791 411.629 190.147C406.733 196.078 403.198 203.007 401.273 210.449C399.347 217.89 399.078 225.662 400.483 233.218C413.848 266.804 415.269 303.949 404.51 338.455C402.137 345.992 404.51 349.007 410.694 350.658C419.396 352.812 426.874 361.57 437.373 356.401C435.575 351.879 431.62 351.807 428.6 350.299C416.663 344.054 412.42 334.507 416.879 323.452C417.704 320.841 419.05 318.424 420.834 316.345C422.619 314.267 424.806 312.57 427.264 311.356C429.723 310.143 432.401 309.437 435.139 309.283C437.877 309.129 440.619 309.529 443.198 310.459C457.58 315.053 464.339 324.816 459.593 336.732C455.782 346.71 459.593 349.797 467.719 352.453C472.178 353.889 478.578 354.391 474.91 362.79C471.243 371.189 466.065 366.02 462.326 364.082C460.974 363.098 459.44 362.391 457.813 362.002C456.185 361.614 454.496 361.551 452.845 361.818C451.193 362.085 449.611 362.677 448.189 363.558C446.768 364.44 445.535 365.594 444.564 366.954C436.798 375.281 427.018 371.907 417.742 368.03C398.11 359.775 397.895 359.775 386.461 377.004C374.664 394.942 359.439 410.382 341.658 422.441C323.878 434.5 303.89 442.941 282.838 447.281C273.706 449.435 270.11 451.804 271.261 462.356C274.137 487.696 258.029 503.13 232.501 500.761C219.054 499.469 205.679 497.028 192.232 495.521C185.903 494.875 183.315 492.147 182.811 485.615C181.948 474.344 179.719 463.146 178.712 451.875C178.742 449.499 177.939 447.187 176.442 445.338C174.945 443.49 172.849 442.222 170.515 441.754C165.337 440.031 162.964 441.754 159.656 445.774C155.723 450.232 150.706 453.604 145.089 455.565C139.472 457.526 133.444 458.011 127.584 456.972C114.137 455.608 100.762 453.239 87.3145 451.732C86.0128 451.798 84.7126 451.575 83.507 451.081C82.3014 450.586 81.2203 449.832 80.3408 448.872C79.4613 447.911 78.8053 446.769 78.4197 445.526C78.0341 444.283 77.9285 442.97 78.1103 441.682C78.1103 436.442 76.7439 431.273 76.2405 426.105C72.9327 395.74 70.6314 365.303 49.9932 339.962C46.2844 334.721 43.6008 328.827 42.0832 322.59C35.7552 300.122 29.4989 278.73 10.0832 262.075C-2.78875 251.021 -1.78178 232.5 4.4744 216.492C11.6654 197.325 20.3662 178.518 27.9887 159.064C28.2402 157.898 28.7356 156.798 29.4424 155.836C30.1491 154.875 31.0512 154.073 32.0898 153.483C33.1284 152.894 34.2801 152.53 35.4694 152.415C36.6587 152.3 37.8588 152.438 38.9912 152.818C40.717 153.249 42.6584 152.818 44.2405 153.249C68.9775 162.079 85.0135 146.788 101.769 133.006C105.724 129.704 104.933 125.827 104.645 122.382C103.926 113.696 102.632 105.01 102.344 96.324C101.553 75.649 115.719 65.743 134.991 73.28C148.366 79.002 160.558 87.157 170.946 97.328C173.135 99.697 175.873 101.492 178.92 102.556C181.967 103.62 185.23 103.92 188.42 103.43C203.617 101.621 218.997 102.008 234.083 104.579C236.972 105.286 240.007 105.117 242.799 104.095C245.591 103.072 248.015 101.241 249.76 98.836C277.014 67.609 304.987 37.0289 332.169 5.51531C337.562 -0.658289 341.517 -1.66329 348.492 2.57211C358.935 9.55961 367.741 18.7179 374.308 29.4197ZM126.074 95.965C127.153 109.46 127.872 121.592 129.31 133.58C130.113 136.384 129.871 139.384 128.628 142.024C127.385 144.664 125.226 146.765 122.551 147.937C109.736 154.657 98.2968 163.715 88.8248 174.641C87.4197 176.576 85.5325 178.11 83.3503 179.092C81.1682 180.074 78.7671 180.47 76.3845 180.24C66.5328 179.451 54.8115 174.21 47.189 179.379C39.5665 184.547 38.2001 197.756 33.5979 207.16C33.0226 208.308 32.591 209.6 32.0876 210.821C19.7191 240.181 20.2226 243.124 44.3844 263.152C47.7692 265.528 50.6005 268.605 52.6854 272.173C54.7703 275.741 56.0597 279.716 56.4653 283.826C57.4739 302.789 63.9408 321.059 75.0902 336.445C92.4205 357.98 95.0809 382.029 97.7416 407.153C98.3888 412.824 99.1798 418.424 100.043 424.023C100.402 426.535 100.043 429.837 103.854 430.053C115.504 430.699 127.512 437.231 138.586 432.063C148.007 427.971 141.679 416.916 143.98 409.379C144.377 408.428 144.858 407.515 145.418 406.651C151.818 409.307 158.146 412.25 164.618 414.619C176.052 418.854 191.728 419.572 197.984 427.684C204.24 435.796 202.443 451.876 204.384 464.366C205.032 468.745 203.665 474.631 211.575 474.201C223.225 473.555 235.306 482.743 246.596 473.483C249.184 471.329 248.393 466.95 247.962 463.433C247.027 456.254 246.595 449.507 245.157 442.687C243.288 433.642 244.582 429.694 255.728 428.33C315.342 420.793 361.076 393.012 381.211 333.861C397.966 284.401 384.519 239.894 353.885 198.33C348.344 207.384 339.995 214.386 330.106 218.273C320.216 222.159 309.327 222.719 299.09 219.866C278.595 215.702 257.742 212.687 237.031 209.672L162.317 197.325L223.728 127.694C208.566 126.019 193.243 126.478 178.209 129.058C175.317 129.788 172.272 129.638 169.466 128.628C166.659 127.617 164.22 125.792 162.461 123.387C152.418 111.772 140.015 102.424 126.074 95.965ZM208.411 180.743C245.373 186.557 279.315 192.372 313.4 197.038C326.919 198.905 336.483 186.916 334.038 171.913C332.816 164.735 333.463 161.504 340.798 158.131C365.535 146.573 369.993 121.089 351.081 101.205C346.119 95.965 344.897 92.878 349.786 86.202C355.149 78.918 358.041 70.116 358.041 61.077C358.041 52.0381 355.149 43.2355 349.786 35.9522C346.119 31.0708 343.674 28.7737 337.993 35.019C295.71 83.115 252.924 130.78 208.411 180.743ZM377.544 190.147C377.544 182.968 381.067 180.528 386.748 177.8C411.485 165.955 416.375 140.543 397.319 121.018C391.279 114.772 392.141 111.398 396.528 104.866C401.577 97.874 404.294 89.473 404.294 80.854C404.294 72.234 401.577 63.834 396.528 56.842C394.802 54.1138 393.364 49.6631 389.337 50.5246C387.401 51.0805 385.679 52.2073 384.396 53.7573C383.113 55.307 382.328 57.208 382.146 59.211C381.654 66.489 380.45 73.702 378.55 80.746C377.131 84.078 376.534 87.701 376.809 91.311C377.085 94.922 378.224 98.413 380.133 101.492C385.569 111.367 387.718 122.712 386.27 133.887C384.822 145.062 379.852 155.488 372.079 163.658C364.888 171.77 364.241 176.508 372.079 183.184C374.104 185.338 375.933 187.668 377.544 190.147ZM437.589 340.178C440.681 342.403 444.061 342.618 446.074 336.517C448.088 330.415 447.368 326.682 441.04 324.17C440.027 323.531 438.882 323.131 437.691 322.999C436.5 322.867 435.295 323.006 434.166 323.407C433.037 323.808 432.014 324.46 431.175 325.313C430.335 326.167 429.7 327.199 429.319 328.333C426.443 335.153 431.476 337.45 437.589 340.178Z" fill="#266DD3"/>
<path d="M139.468 183.687C138.817 185.409 137.804 186.971 136.499 188.268C135.194 189.565 133.626 190.566 131.902 191.204C130.178 191.841 128.337 192.101 126.504 191.965C124.671 191.829 122.889 191.3 121.277 190.415C119.592 189.842 118.053 188.906 116.768 187.673C115.482 186.441 114.481 184.942 113.834 183.28C113.188 181.619 112.911 179.836 113.025 178.057C113.138 176.277 113.639 174.544 114.492 172.979C115.01 171.156 115.94 169.477 117.209 168.072C118.478 166.666 120.051 165.571 121.809 164.872C123.567 164.173 125.462 163.888 127.347 164.039C129.232 164.191 131.058 164.774 132.683 165.745C134.391 166.367 135.945 167.351 137.238 168.63C138.532 169.909 139.536 171.453 140.18 173.156C140.824 174.86 141.094 176.682 140.971 178.499C140.848 180.317 140.336 182.086 139.468 183.687Z" fill="#266DD3"/>
<path d="M536.102 129H606.875V110.744H558.244V85.7386H603.04V67.4829H558.244V42.5284H606.67V24.2727H536.102V129Z" fill="#266DD3"/>
<path d="M645.036 24.2727H619.928L652.092 76.6363L619.314 129H644.678L666.155 93.2557H666.973L688.45 129H713.916L681.24 76.6363L713.2 24.2727H688.195L666.973 59.9659H666.155L645.036 24.2727Z" fill="#266DD3"/>
<path d="M727.212 129H797.984V110.744H749.354V85.7386H794.149V67.4829H749.354V42.5284H797.78V24.2727H727.212V129Z" fill="#266DD3"/>
<path d="M907.787 60.9375C904.872 36.75 886.565 22.8409 862.327 22.8409C834.662 22.8409 813.543 42.375 813.543 76.6363C813.543 110.795 834.304 130.432 862.327 130.432C889.173 130.432 905.384 112.585 907.787 93.3068L885.389 93.2045C883.293 104.403 874.497 110.847 862.685 110.847C846.781 110.847 835.991 99.0341 835.991 76.6363C835.991 54.8522 846.628 42.4261 862.838 42.4261C874.957 42.4261 883.702 49.4318 885.389 60.9375H907.787Z" fill="#266DD3"/>
<path d="M988.506 24.2727V92.7443C988.506 103.943 979.455 110.744 967.08 110.744C954.858 110.744 945.807 103.943 945.807 92.7443V24.2727H923.665V93.5113C923.665 117.239 941.665 130.483 967.08 130.483C992.392 130.483 1010.49 117.239 1010.49 93.5113V24.2727H988.506Z" fill="#266DD3"/>
<path d="M1024.72 42.5284H1056.79V129H1078.67V42.5284H1110.73V24.2727H1024.72V42.5284Z" fill="#266DD3"/>
<path d="M1124.9 129H1195.67V110.744H1147.04V85.7386H1191.84V67.4829H1147.04V42.5284H1195.47V24.2727H1124.9V129Z" fill="#266DD3"/>
<path d="M539.548 484H670.053C738.661 484 775.202 448.205 775.202 399.582C775.202 354.391 742.837 327.097 708.085 325.456V322.473C739.854 315.314 763.27 292.793 763.27 256.848C763.27 211.06 729.264 178.545 661.849 178.545H539.548V484ZM604.129 431.202V350.065H658.27C689.293 350.065 708.533 367.963 708.533 393.169C708.533 416.138 692.872 431.202 656.778 431.202H604.129ZM604.129 306.365V230.747H653.199C681.835 230.747 698.092 245.513 698.092 267.587C698.092 291.749 678.405 306.365 652.006 306.365H604.129Z" fill="#266DD3"/>
<path d="M881.805 178.545H817.224V484H881.805V178.545Z" fill="#266DD3"/>
<path d="M1137.48 277.281H1203.11C1194.75 216.876 1141.51 174.369 1072.45 174.369C991.764 174.369 929.57 232.537 929.57 331.571C929.57 428.219 987.737 488.176 1073.8 488.176C1150.9 488.176 1205.94 439.405 1205.94 359.014V320.534H1078.12V369.156H1143.75C1142.85 407.04 1117.05 431.053 1074.09 431.053C1025.62 431.053 995.045 394.81 995.045 330.974C995.045 267.437 1026.81 231.493 1073.5 231.493C1106.76 231.493 1129.28 248.645 1137.48 277.281Z" fill="#266DD3"/>
</svg>
